HIERARCHY
ROOT joint_0
{
	OFFSET 0.000000 0.000000 0.000000
	CHANNELS 6 Xposition Yposition Zposition Zrotation Yrotation Xrotation 
	JOINT joint_1
	{
		OFFSET 1.363060 -1.794630 0.839290
		CHANNELS 3 Zrotation Yrotation Xrotation
		JOINT joint_2
		{
			OFFSET 2.448110 -6.726130 0.000000
			CHANNELS 3 Zrotation Yrotation Xrotation
			JOINT joint_3
			{
				OFFSET 2.562200 -7.039590 0.000000
				CHANNELS 3 Zrotation Yrotation Xrotation
				JOINT joint_4
				{
					OFFSET 0.157640 -0.433110 2.322550
					CHANNELS 3 Zrotation Yrotation Xrotation
					End Site
					{
						OFFSET 0.000000 0.000000 0.000000
					}
				}
			}
		}
	}
	JOINT joint_5
	{
		OFFSET -1.305520 -1.794630 0.839290
		CHANNELS 3 Zrotation Yrotation Xrotation
		JOINT joint_6
		{
			OFFSET -2.542530 -6.985550 0.000000
			CHANNELS 3 Zrotation Yrotation Xrotation
			JOINT joint_7
			{
				OFFSET -2.568260 -7.056230 0.000000
				CHANNELS 3 Zrotation Yrotation Xrotation
				JOINT joint_8
				{
					OFFSET -0.164730 -0.452590 2.363150
					CHANNELS 3 Zrotation Yrotation Xrotation
					End Site
					{
						OFFSET 0.000000 0.000000 0.000000
					}
				}
			}
		}
	}
	JOINT joint_9
	{
		OFFSET 0.028270 2.035590 -0.193380
		CHANNELS 3 Zrotation Yrotation Xrotation
		JOINT joint_10
		{
			OFFSET 0.056720 4.548850 -0.042750
			CHANNELS 3 Zrotation Yrotation Xrotation
			JOINT joint_11
			{
				OFFSET -0.054170 1.746240 0.172020
				CHANNELS 3 Zrotation Yrotation Xrotation
				JOINT joint_12
				{
					OFFSET 0.104070 1.761360 -0.123970
					CHANNELS 3 Zrotation Yrotation Xrotation
					End Site
					{
						OFFSET 0.000000 0.000000 0.000000
					}
				}
			}
			JOINT joint_13
			{
				OFFSET 3.362410 1.200890 -0.311210
				CHANNELS 3 Zrotation Yrotation Xrotation
				JOINT joint_14
				{
					OFFSET 5.783000 0.000000 0.000000
					CHANNELS 3 Zrotation Yrotation Xrotation
					JOINT joint_15
					{
						OFFSET 6.683559 0.000000 0.000000
						CHANNELS 3 Zrotation Yrotation Xrotation
						JOINT joint_16
						{
							OFFSET 0.000000 0.000000 0.000000
							CHANNELS 3 Zrotation Yrotation Xrotation
							End Site
							{
								OFFSET 0.000000 0.000000 0.000000
							}
						}
					}
				}
			}
			JOINT joint_17
			{
				OFFSET -2.136613 1.374050 -0.404650
				CHANNELS 3 Zrotation Yrotation Xrotation
				JOINT joint_18
				{
					OFFSET -0.741900 0.000000 0.000000
					CHANNELS 3 Zrotation Yrotation Xrotation
					JOINT joint_19
					{
						OFFSET -0.744170 0.000000 0.000000
						CHANNELS 3 Zrotation Yrotation Xrotation
						JOINT joint_20
						{
							OFFSET 0.000000 0.000000 0.000000
							CHANNELS 3 Zrotation Yrotation Xrotation
							End Site
							{
								OFFSET 0.000000 0.000000 0.000000
							}
						}
					}
				}
			}
		}
	}
}
MOTION
Frames: 15
Frame Time: 0.031667
0.383414 16.863363 -1.810240 -1.405944 0.763194 0.967095 -18.336280 1.635152 -1.849907 -1.748801 1.841550 7.972173 -0.757357 2.032601 -0.168268 -0.116456 -0.666945 -1.549868 22.354110 -1.221064 1.727042 0.295051 -3.664397 7.629115 1.007126 -4.471427 -4.554578 -0.200734 -1.642414 3.393457 -0.011640 -0.501955 -9.421763 -0.780715 -0.173984 12.527078 2.888396 -0.323198 16.206420 0.480050 -0.150706 8.741235 -20.948115 -4.426944 0.853804 7.919060 -13.988398 -8.613546 1.160313 -3.664443 -1.734062 -7.255347 -0.134514 -0.081488 11.178452 4.478757 -5.384397 -13.627067 18.522327 -10.697999 -0.524621 1.463611 -3.212201 6.945932 -0.123320 -0.135452 
0.383318 16.859610 -1.817252 -1.379972 0.747692 0.969901 -18.665915 3.279447 -0.529855 -1.505533 0.384842 4.759321 -1.240162 1.859853 0.809028 -0.203649 -0.693305 -1.473400 22.319919 -2.515444 2.562162 -0.335775 -3.127215 5.429514 0.996013 -4.207192 -3.275537 -0.297202 -1.813607 3.441706 -0.396515 -0.553054 -10.682460 -0.810477 -0.698231 15.361587 2.563314 -0.624404 17.690415 0.446153 -0.294356 9.210507 -20.160065 -4.429556 2.503623 7.310093 -13.308219 -10.015077 1.388483 -3.924656 -1.238916 -7.333384 -0.224435 -0.162093 12.210464 4.441547 -0.671958 -14.040251 17.954019 -12.244306 -0.551413 1.870162 -1.288063 6.851830 -0.204959 -0.247551 
0.359751 16.856756 -1.922252 -1.278687 2.231196 1.264987 -19.642404 3.846523 -0.201276 -1.368936 -0.297158 3.293118 -1.741513 1.480836 1.229830 -0.249937 -0.794341 -1.599630 23.151070 -3.256082 3.540509 -0.449088 -2.696580 3.365079 1.242203 -3.930426 -2.712223 -0.355417 -2.011905 3.558748 -0.503579 -0.831388 -11.627449 -0.924437 -0.774169 17.779548 2.482550 -1.145726 18.781520 0.462842 -0.548403 9.472473 -20.004045 -4.539299 3.957580 7.286717 -13.308532 -11.192682 1.512949 -4.240065 -0.955153 -7.392757 -0.278610 -0.210500 12.838802 4.153678 0.947276 -14.049694 17.338441 -13.621558 -0.757269 2.010770 -0.936617 6.788218 -0.254000 -0.303547 
0.356616 16.846096 -1.948889 -0.875224 1.924792 0.723241 -20.649813 3.328504 -0.156304 -1.239239 -0.607954 2.478120 -2.100394 0.882843 1.190601 -0.312508 -0.946292 -1.809032 23.836136 -3.771320 3.608953 -0.817135 -2.541047 2.330795 1.604425 -4.215791 -2.851066 -0.430851 -2.223219 3.600985 -0.790917 -1.301892 -12.267594 -1.173576 -0.887450 19.962932 2.390250 -1.286570 19.609094 0.458673 -0.852011 9.511836 -20.246303 -4.150849 4.691465 7.621942 -13.654301 -12.697505 1.864856 -4.850041 -0.740752 -7.474659 -0.354555 -0.284024 13.718547 3.424780 1.758881 -14.080596 16.379847 -14.871191 -1.126092 2.177317 -1.586345 6.701196 -0.321253 -0.381610 
0.352688 16.855104 -1.909324 -1.206381 1.764283 0.913657 -21.821847 2.908067 -0.454682 -1.193174 -0.887053 2.130062 -2.204593 0.415388 0.783776 -0.395401 -0.986287 -1.751337 24.358861 -4.023394 3.065121 -0.929250 -2.693588 2.137324 1.696217 -4.654398 -2.966224 -0.516720 -2.364725 3.647382 -1.121255 -1.830113 -12.562350 -1.452704 -0.869467 21.855094 2.604377 -1.816629 19.733048 0.699519 -1.189695 9.142040 -20.151998 -4.264266 4.640115 8.105516 -13.849828 -14.078781 2.219762 -5.149301 -0.420501 -7.560873 -0.446108 -0.378696 14.013985 2.681237 1.521361 -14.013387 15.641143 -16.146111 -1.362900 2.366887 -1.908748 6.594658 -0.402574 -0.476780 
0.353326 16.855556 -1.907733 -1.240121 1.724975 0.923689 -22.623895 2.209859 -0.821856 -1.245518 -1.074405 1.656473 -2.385386 0.187683 0.411783 -0.494230 -1.073723 -1.750596 24.692944 -4.061518 2.618685 -1.293940 -2.869048 1.710173 1.497738 -5.119695 -3.103758 -0.628325 -2.598341 3.884425 -1.394989 -2.287328 -12.886605 -1.630267 -1.027226 23.744509 2.732057 -2.369207 19.909539 0.847839 -1.567759 8.884982 -20.086918 -4.296150 5.025969 8.319979 -14.096172 -15.507173 2.427610 -5.682530 -0.751971 -7.657477 -0.557677 -0.492142 14.189469 1.942691 1.599520 -14.012427 14.758870 -17.432093 -1.519750 2.573036 -2.306571 6.461410 -0.501330 -0.593170 
0.353497 16.856457 -1.906577 -1.280150 1.729442 0.936999 -23.330223 1.831371 -1.153480 -1.443268 -1.574809 1.055834 -2.860974 -0.013553 0.211233 -0.575115 -1.130779 -1.646112 25.136018 -4.408388 2.402615 -1.529235 -3.020839 1.243081 1.336427 -5.234683 -3.444157 -0.721490 -2.831490 4.004061 -1.894760 -2.895738 -13.191158 -1.841367 -1.129705 25.758315 2.785727 -2.950944 19.822584 0.963302 -1.951279 8.567016 -19.875553 -4.255785 4.844163 8.232152 -14.093292 -17.017620 2.696565 -6.228505 -1.115913 -7.738893 -0.650880 -0.580323 14.045132 1.233183 1.513137 -13.989229 13.726807 -18.706092 -1.828600 2.698496 -2.676855 6.349820 -0.583024 -0.684409 
0.354524 16.854355 -1.908769 -1.262170 1.675628 0.897137 -23.400668 1.003894 -1.668155 -1.194753 -1.786494 0.689953 -3.095181 -0.037479 0.216457 -0.600925 -1.256016 -1.866522 25.445750 -4.100509 1.689421 -1.730805 -2.935027 1.018686 1.080102 -5.324767 -3.477782 -0.744478 -2.815343 3.930321 -2.180814 -2.990403 -12.337972 -2.080994 -1.369257 26.273595 2.999987 -3.076700 20.305923 1.289709 -2.048346 8.669924 -20.725661 -4.859394 5.221453 8.456826 -14.401110 -17.614847 2.672381 -6.413945 -1.256549 -7.759257 -0.684785 -0.614904 14.617379 1.124206 1.561129 -14.186368 13.591424 -19.326893 -1.854345 2.825861 -3.035284 6.306687 -0.612157 -0.716706 
0.355215 16.853754 -1.910480 -1.258266 1.650171 0.888190 -23.434553 -0.083490 -2.102395 -0.756551 -1.877409 0.203062 -3.105187 0.132187 0.306247 -0.639525 -1.421994 -2.210250 25.708936 -3.502926 0.907423 -2.434748 -2.951038 0.611994 0.895931 -5.621620 -3.634506 -0.786613 -2.868662 3.954669 -2.371466 -3.079979 -11.602957 -2.388447 -1.678462 26.806642 3.169780 -2.872376 20.526428 1.540414 -2.065308 8.708642 -21.266335 -5.265443 5.633807 8.700207 -14.603488 -18.168543 2.705885 -6.703429 -1.273169 -7.792742 -0.733929 -0.668067 15.057220 1.221943 1.678366 -14.390255 13.486175 -19.690571 -1.831952 3.051079 -3.046664 6.240643 -0.654848 -0.769081 
0.354847 16.854204 -1.912898 -1.277922 1.673580 0.855423 -23.317251 -0.537063 -2.627031 -0.622686 -1.788018 0.282699 -3.052454 0.250446 0.431155 -0.635550 -1.613630 -2.676223 25.793583 -3.247892 0.198875 -2.727513 -2.999150 0.835150 0.692068 -5.664717 -3.656061 -0.790645 -2.880568 3.942309 -2.783744 -3.091710 -11.181037 -2.414444 -1.642499 27.304027 3.369295 -2.924430 20.665181 1.780274 -2.094653 8.802407 -21.720985 -5.640233 5.828397 8.843745 -14.683363 -18.559000 2.716104 -6.893452 -1.207833 -7.797610 -0.740356 -0.673517 15.309341 1.755408 1.904185 -14.602522 13.421451 -20.137067 -1.885409 3.230308 -2.989269 6.230748 -0.659840 -0.774682 
0.355467 16.859909 -1.895105 -1.494062 1.709578 1.028775 -23.465236 -0.794181 -3.131458 -0.641145 -1.665300 0.468919 -2.935560 0.097534 0.344447 -0.621763 -1.754553 -3.006689 25.788217 -3.199673 -0.471773 -2.811421 -3.069475 1.055983 0.547347 -5.844876 -3.641628 -0.783873 -2.890046 3.876820 -3.047438 -3.174179 -11.235054 -2.623401 -1.702407 27.746094 3.363462 -2.892930 20.871299 1.894437 -2.136776 8.708538 -21.745538 -6.322452 5.904578 9.116162 -15.012417 -18.951206 2.802988 -7.035043 -1.589353 -7.798591 -0.735125 -0.665467 15.554142 2.690620 1.902041 -14.854453 13.450847 -20.443322 -1.896504 3.301024 -3.288979 6.239779 -0.654010 -0.766607 
0.355698 16.858559 -1.896486 -1.490068 1.658553 0.979278 -23.612788 -0.862064 -3.246439 -0.698293 -1.660012 0.619385 -2.976978 0.004461 0.292213 -0.640808 -1.778637 -3.009219 25.642259 -3.185120 -0.689142 -2.868018 -3.158655 1.120306 0.492580 -5.952309 -3.724439 -0.804905 -2.942247 3.846253 -3.307720 -3.287273 -11.234203 -2.722002 -1.709414 27.924649 3.405293 -2.879716 21.064622 1.854948 -2.128117 8.673445 -22.263955 -6.380688 5.839838 9.181324 -15.257760 -19.156198 2.835642 -7.177279 -1.665921 -7.820028 -0.757340 -0.683273 15.724449 2.606445 1.964783 -15.174122 13.568758 -20.748997 -1.971342 3.272607 -3.284440 6.215637 -0.673377 -0.789212 
0.356209 16.859009 -1.897598 -1.467705 1.612175 0.967268 -23.682269 -0.802035 -3.299545 -0.743954 -1.641813 0.669002 -3.022465 -0.029810 0.232829 -0.653575 -1.764107 -2.934899 25.618180 -3.190325 -0.615581 -2.880255 -3.191395 1.072413 0.461202 -5.945340 -3.773439 -0.817154 -2.974915 3.837996 -3.470732 -3.322028 -11.322624 -2.805638 -1.689756 27.991384 3.413087 -2.903822 21.123301 1.818238 -2.133044 8.650495 -22.464682 -6.299101 5.749060 9.168625 -15.288913 -19.219110 2.848945 -7.205829 -1.742956 -7.831448 -0.769911 -0.694058 15.592683 2.357269 1.866601 -15.438858 13.692013 -20.922728 -2.020510 3.270276 -3.280086 6.200612 -0.684378 -0.802080 
0.356011 16.859159 -1.899114 -1.498228 1.643050 0.943425 -23.655436 -0.791584 -3.306489 -0.742323 -1.640009 0.681155 -3.030569 -0.024689 0.234036 -0.654056 -1.766802 -2.940020 25.641841 -3.208810 -0.588237 -2.879615 -3.176349 1.023767 0.466515 -5.965039 -3.774507 -0.818112 -2.979099 3.843925 -3.470277 -3.303456 -11.331084 -2.807232 -1.683854 27.979838 3.400910 -2.943968 21.146726 1.833267 -2.155871 8.636544 -22.451994 -6.297244 5.741959 9.158693 -15.284813 -19.214424 2.846374 -7.200452 -1.740673 -7.832068 -0.770641 -0.694789 15.607437 2.380722 1.835953 -15.444499 13.703136 -20.934938 -2.021805 3.276590 -3.290239 6.199557 -0.685011 -0.802895 
0.357096 16.857958 -1.897973 -1.507732 1.614423 0.943045 -23.637012 -0.787312 -3.320632 -0.743736 -1.635496 0.694656 -3.037712 -0.016095 0.231248 -0.654364 -1.771505 -2.950536 25.661586 -3.220323 -0.564277 -2.876685 -3.168838 0.993944 0.470356 -5.981674 -3.775985 -0.819398 -2.986781 3.859922 -3.476771 -3.297179 -11.340236 -2.816676 -1.680411 27.977781 3.400999 -2.963320 21.150411 1.830451 -2.165521 8.626937 -22.434402 -6.295686 5.731899 9.152373 -15.278394 -19.209387 2.842752 -7.194249 -1.736961 -7.832698 -0.771323 -0.695452 15.620994 2.409650 1.802921 -15.452147 13.709073 -20.942277 -2.022566 3.279008 -3.306217 6.198655 -0.685605 -0.803655 
